HIERARCHY
ROOT Hips
{
  OFFSET 0.000 67.698 0.000
  CHANNELS 6 Xposition Yposition Zposition Zrotation Xrotation Yrotation
  JOINT LeftUpLeg
  {
    OFFSET 7.785 0.508 3.446
    CHANNELS 6 Xposition Yposition Zposition Zrotation Xrotation Yrotation
    JOINT LeftLeg
    {
      OFFSET 0.000 -35.017 0.000
      CHANNELS 6 Xposition Yposition Zposition Zrotation Xrotation Yrotation
      JOINT LeftFoot
      {
        OFFSET 0.000 -33.188 0.000
        CHANNELS 6 Xposition Yposition Zposition Zrotation Xrotation Yrotation
        End Site
        {
          OFFSET 0.000 0.000 9.742
        }
      }
    }
  }
  JOINT RightUpLeg
  {
    OFFSET -7.785 0.508 3.446
    CHANNELS 6 Xposition Yposition Zposition Zrotation Xrotation Yrotation
    JOINT RightLeg
    {
      OFFSET 0.000 -35.017 0.000
      CHANNELS 6 Xposition Yposition Zposition Zrotation Xrotation Yrotation
      JOINT RightFoot
      {
        OFFSET 0.000 -33.188 0.000
        CHANNELS 6 Xposition Yposition Zposition Zrotation Xrotation Yrotation
        End Site
        {
          OFFSET 0.000 0.000 9.742
        }
      }
    }
  }
  JOINT Spine
  {
    OFFSET 0.000 32.056 0.000
    CHANNELS 6 Xposition Yposition Zposition Zrotation Xrotation Yrotation
    JOINT Spine1
    {
      OFFSET 0.000 23.505 0.000
      CHANNELS 6 Xposition Yposition Zposition Zrotation Xrotation Yrotation
      JOINT LeftShoulder
      {
        OFFSET 1.698 -0.505 0.148
        CHANNELS 6 Xposition Yposition Zposition Zrotation Xrotation Yrotation
        JOINT LeftArm
        {
          OFFSET 15.880 0.000 0.000
          CHANNELS 6 Xposition Yposition Zposition Zrotation Xrotation Yrotation
          JOINT LeftForeArm
          {
            OFFSET 24.459 0.000 0.000
            CHANNELS 6 Xposition Yposition Zposition Zrotation Xrotation Yrotation
            JOINT LeftHand
            {
              OFFSET 22.170 0.000 0.000
              CHANNELS 6 Xposition Yposition Zposition Zrotation Xrotation Yrotation
              JOINT LeftHandThumb1
              {
                OFFSET 4.877 -1.044 3.608
                CHANNELS 6 Xposition Yposition Zposition Zrotation Xrotation Yrotation
                JOINT LeftHandThumb2
                {
                  OFFSET 2.665 0.000 0.000
                  CHANNELS 6 Xposition Yposition Zposition Zrotation Xrotation Yrotation
                  JOINT LeftHandThumb3
                  {
                    OFFSET 2.543 -0.000 -0.000
                    CHANNELS 6 Xposition Yposition Zposition Zrotation Xrotation Yrotation
                    End Site
                    {
                      OFFSET 2.667 0.000 0.000
                    }
                  }
                }
              }
              JOINT LeftHandIndex1
              {
                OFFSET 9.232 -0.301 2.144
                CHANNELS 6 Xposition Yposition Zposition Zrotation Xrotation Yrotation
                JOINT LeftHandIndex2
                {
                  OFFSET 4.225 0.000 0.000
                  CHANNELS 6 Xposition Yposition Zposition Zrotation Xrotation Yrotation
                  JOINT LeftHandIndex3
                  {
                    OFFSET 2.654 0.000 0.000
                    CHANNELS 6 Xposition Yposition Zposition Zrotation Xrotation Yrotation
                    End Site
                    {
                      OFFSET 1.958 0.000 0.000
                    }
                  }
                }
              }
              JOINT LeftHandMiddle1
              {
                OFFSET 8.920 0.000 0.000
                CHANNELS 6 Xposition Yposition Zposition Zrotation Xrotation Yrotation
                JOINT LeftHandMiddle2
                {
                  OFFSET 4.863 -0.000 0.000
                  CHANNELS 6 Xposition Yposition Zposition Zrotation Xrotation Yrotation
                  JOINT LeftHandMiddle3
                  {
                    OFFSET 2.765 0.000 0.000
                    CHANNELS 6 Xposition Yposition Zposition Zrotation Xrotation Yrotation
                    End Site
                    {
                      OFFSET 2.006 0.000 -0.000
                    }
                  }
                }
              }
              JOINT LeftHandRing1
              {
                OFFSET 8.689 -0.126 -2.087
                CHANNELS 6 Xposition Yposition Zposition Zrotation Xrotation Yrotation
                JOINT LeftHandRing2
                {
                  OFFSET 4.538 0.000 -0.000
                  CHANNELS 6 Xposition Yposition Zposition Zrotation Xrotation Yrotation
                  JOINT LeftHandRing3
                  {
                    OFFSET 2.305 -0.000 0.000
                    CHANNELS 6 Xposition Yposition Zposition Zrotation Xrotation Yrotation
                    End Site
                    {
                      OFFSET 1.923 -0.000 0.000
                    }
                  }
                }
              }
              JOINT LeftHandPinky1
              {
                OFFSET 8.391 -0.817 -3.758
                CHANNELS 6 Xposition Yposition Zposition Zrotation Xrotation Yrotation
                JOINT LeftHandPinky2
                {
                  OFFSET 3.044 0.000 -0.000
                  CHANNELS 6 Xposition Yposition Zposition Zrotation Xrotation Yrotation
                  JOINT LeftHandPinky3
                  {
                    OFFSET 1.975 -0.000 0.000
                    CHANNELS 6 Xposition Yposition Zposition Zrotation Xrotation Yrotation
                    End Site
                    {
                      OFFSET 1.667 0.000 -0.000
                    }
                  }
                }
              }
            }
          }
        }
      }
      JOINT RightShoulder
      {
        OFFSET -1.698 -0.505 0.148
        CHANNELS 6 Xposition Yposition Zposition Zrotation Xrotation Yrotation
        JOINT RightArm
        {
          OFFSET -15.880 0.000 0.000
          CHANNELS 6 Xposition Yposition Zposition Zrotation Xrotation Yrotation
          JOINT RightForeArm
          {
            OFFSET -24.459 0.000 0.000
            CHANNELS 6 Xposition Yposition Zposition Zrotation Xrotation Yrotation
            JOINT RightHand
            {
              OFFSET -22.170 0.000 0.000
              CHANNELS 6 Xposition Yposition Zposition Zrotation Xrotation Yrotation
              JOINT RightHandThumb1
              {
                OFFSET -4.877 -1.044 3.608
                CHANNELS 6 Xposition Yposition Zposition Zrotation Xrotation Yrotation
                JOINT RightHandThumb2
                {
                  OFFSET -2.665 -0.000 -0.000
                  CHANNELS 6 Xposition Yposition Zposition Zrotation Xrotation Yrotation
                  JOINT RightHandThumb3
                  {
                    OFFSET -2.543 0.000 0.000
                    CHANNELS 6 Xposition Yposition Zposition Zrotation Xrotation Yrotation
                    End Site
                    {
                      OFFSET -2.667 0.000 0.000
                    }
                  }
                }
              }
              JOINT RightHandIndex1
              {
                OFFSET -9.232 -0.301 2.144
                CHANNELS 6 Xposition Yposition Zposition Zrotation Xrotation Yrotation
                JOINT RightHandIndex2
                {
                  OFFSET -4.225 0.000 0.000
                  CHANNELS 6 Xposition Yposition Zposition Zrotation Xrotation Yrotation
                  JOINT RightHandIndex3
                  {
                    OFFSET -2.654 0.000 -0.000
                    CHANNELS 6 Xposition Yposition Zposition Zrotation Xrotation Yrotation
                    End Site
                    {
                      OFFSET -1.958 0.000 -0.000
                    }
                  }
                }
              }
              JOINT RightHandMiddle1
              {
                OFFSET -8.920 0.000 0.000
                CHANNELS 6 Xposition Yposition Zposition Zrotation Xrotation Yrotation
                JOINT RightHandMiddle2
                {
                  OFFSET -4.863 0.000 0.000
                  CHANNELS 6 Xposition Yposition Zposition Zrotation Xrotation Yrotation
                  JOINT RightHandMiddle3
                  {
                    OFFSET -2.765 0.000 0.000
                    CHANNELS 6 Xposition Yposition Zposition Zrotation Xrotation Yrotation
                    End Site
                    {
                      OFFSET -2.006 0.000 0.000
                    }
                  }
                }
              }
              JOINT RightHandRing1
              {
                OFFSET -8.689 -0.126 -2.087
                CHANNELS 6 Xposition Yposition Zposition Zrotation Xrotation Yrotation
                JOINT RightHandRing2
                {
                  OFFSET -4.538 0.000 0.000
                  CHANNELS 6 Xposition Yposition Zposition Zrotation Xrotation Yrotation
                  JOINT RightHandRing3
                  {
                    OFFSET -2.305 0.000 -0.000
                    CHANNELS 6 Xposition Yposition Zposition Zrotation Xrotation Yrotation
                    End Site
                    {
                      OFFSET -1.923 -0.000 0.000
                    }
                  }
                }
              }
              JOINT RightHandPinky1
              {
                OFFSET -8.391 -0.817 -3.758
                CHANNELS 6 Xposition Yposition Zposition Zrotation Xrotation Yrotation
                JOINT RightHandPinky2
                {
                  OFFSET -3.044 0.000 0.000
                  CHANNELS 6 Xposition Yposition Zposition Zrotation Xrotation Yrotation
                  JOINT RightHandPinky3
                  {
                    OFFSET -1.975 0.000 -0.000
                    CHANNELS 6 Xposition Yposition Zposition Zrotation Xrotation Yrotation
                    End Site
                    {
                      OFFSET -1.667 0.000 0.000
                    }
                  }
                }
              }
            }
          }
        }
      }
      JOINT Neck
      {
        OFFSET 0.000 0.769 0.000
        CHANNELS 6 Xposition Yposition Zposition Zrotation Xrotation Yrotation
        JOINT Head
        {
          OFFSET 0.000 6.990 0.000
          CHANNELS 6 Xposition Yposition Zposition Zrotation Xrotation Yrotation
          End Site
          {
            OFFSET 0.000 15.945 0.000
          }
        }
      }
    }
  }
}
MOTION
Frames:	4
Frame Time:	0.033333
10.95515 75.43541 -227.32198 -1.39235 -2.78462 -5.12220 7.86914 0.49732 3.58348 10.56706 -2.67343 10.53216 -0.00048 -35.97400 -0.00361 -1.19057 9.86080 -4.06689 -0.00080 -33.54581 0.00743 0.29895 24.54421 -0.72903 -7.59243 0.15650 3.59039 -5.16319 1.62929 -15.49394 -0.00017 -34.96162 -0.00542 -0.08399 12.39699 -2.43634 0.00027 -34.48771 0.00848 0.11128 16.82404 -0.40155 -0.00206 32.00655 -0.01136 0.08030 2.00922 0.21889 0.00135 23.43107 0.00410 -0.02721 2.32560 0.19093 1.66241 -0.48002 0.17314 -16.00999 1.60410 -5.55973 15.67925 -0.00091 0.00499 -64.70977 4.05328 -11.05108 23.90419 0.00333 -0.00869 -11.57951 10.25910 -12.01772 22.15977 0.00484 -0.00047 -13.89800 19.71559 1.98016 4.87698 -1.04399 3.60802 -41.57595 -8.45725 -7.72882 2.66498 0.00004 0.00002 0.00000 0.00000 5.00000 2.54301 -0.00002 -0.00002 -0.00002 0.00000 60.00001 9.23199 -0.30100 2.14401 -80.00000 -0.00001 0.00000 4.22498 0.00000 0.00001 -90.00000 0.00000 0.00000 2.65400 0.00001 0.00000 -69.99999 0.00000 0.00001 8.92000 0.00004 0.00004 -80.00000 -0.00001 0.00000 4.86301 -0.00001 0.00000 -90.00000 0.00000 0.00000 2.76501 0.00000 0.00000 -69.99999 0.00000 0.00001 8.68899 -0.12598 -2.08697 -80.00000 -0.00001 0.00000 4.53801 0.00000 -0.00001 -90.00000 0.00000 0.00000 2.30500 -0.00002 0.00002 -69.99999 0.00000 0.00001 8.39099 -0.81700 -3.75799 -80.00000 -0.00001 0.00000 3.04402 0.00000 -0.00001 -90.00000 0.00000 0.00000 1.97502 -0.00001 0.00001 -69.99999 0.00000 0.00001 -1.75371 -0.51384 0.17130 16.01446 1.52628 5.30455 -16.42316 0.00007 0.00439 68.96011 3.28646 9.70547 -24.90836 0.00569 0.01065 1.80052 8.45495 12.03849 -22.24566 0.00283 0.01301 21.23497 26.96741 0.20948 -4.87702 -1.04399 3.60801 40.90540 11.75460 -3.91034 -2.66501 -0.00002 -0.00002 0.00000 0.00000 -5.00000 -2.54298 0.00002 0.00001 0.00000 -0.00000 -60.00000 -9.23201 -0.30100 2.14400 -2.00000 -0.00000 -0.00000 -4.22502 0.00001 0.00001 -2.00000 -0.00000 -0.00000 -2.65399 0.00001 -0.00001 -2.00000 0.00000 0.00000 -8.92000 0.00000 0.00000 80.00000 -0.00001 0.00001 -4.86299 0.00001 0.00001 90.00000 -0.00000 0.00001 -2.76499 0.00000 0.00001 70.00000 -0.00001 0.00001 -8.68900 -0.12600 -2.08700 80.00000 -0.00001 0.00001 -4.53799 0.00000 0.00000 90.00000 -0.00000 0.00001 -2.30502 0.00001 -0.00001 70.00000 -0.00001 0.00001 -8.39100 -0.81700 -3.75799 -2.00000 -0.00000 -0.00000 -3.04401 0.00001 0.00000 -2.00000 -0.00000 -0.00000 -1.97500 0.00000 -0.00001 -2.00000 0.00000 0.00000 -0.00002 0.77450 0.00007 0.00002 -0.00003 -0.00002 0.00281 6.89575 0.01234 5.39155 13.00117 -2.08441 
11.00305 75.43541 -227.17914 -1.32436 -2.75586 -5.02703 7.85593 0.50952 3.58348 10.47851 -2.86352 10.39628 -0.00048 -35.91147 -0.00361 -1.16870 10.31906 -4.00874 -0.00080 -33.59854 0.00743 0.24233 24.46846 -0.59446 -7.59243 0.14582 3.59039 -5.35975 1.59894 -15.70692 -0.00017 -34.91584 -0.00542 0.00057 12.50928 -2.28723 0.00027 -34.46669 0.00848 0.12182 17.49727 -0.42160 -0.00206 32.02536 -0.01136 0.06015 1.98523 0.16694 0.00135 23.44563 0.00410 -0.03540 2.32561 0.13386 1.66241 -0.48785 0.16860 -16.24973 1.57710 -5.38794 15.69517 -0.00091 0.00499 -64.32732 4.33233 -10.85512 23.89364 0.00333 -0.00869 -11.59143 10.34686 -12.56817 22.14483 0.00484 -0.00047 -13.59534 19.56008 1.47284 4.87698 -1.04399 3.60802 -41.57595 -8.45725 -7.72882 2.66498 0.00004 0.00002 0.00000 0.00000 5.00000 2.54301 -0.00002 -0.00002 -0.00002 0.00000 60.00001 9.23199 -0.30100 2.14401 -80.00000 -0.00001 0.00000 4.22498 0.00000 0.00001 -90.00000 0.00000 0.00000 2.65400 0.00001 0.00000 -69.99999 0.00000 0.00001 8.92000 0.00004 0.00004 -80.00000 -0.00001 0.00000 4.86301 -0.00001 0.00000 -90.00000 0.00000 0.00000 2.76501 0.00000 0.00000 -69.99999 0.00000 0.00001 8.68899 -0.12598 -2.08697 -80.00000 -0.00001 0.00000 4.53801 0.00000 -0.00001 -90.00000 0.00000 0.00000 2.30500 -0.00002 0.00002 -69.99999 0.00000 0.00001 8.39099 -0.81700 -3.75799 -80.00000 -0.00001 0.00000 3.04402 0.00000 -0.00001 -90.00000 0.00000 0.00000 1.97502 -0.00001 0.00001 -69.99999 0.00000 0.00001 -1.75371 -0.51384 0.16631 16.10336 1.48810 5.14235 -16.43993 0.00007 0.00439 68.88176 3.24224 9.67729 -24.90836 0.00569 0.01065 1.85316 8.47680 12.11422 -22.24831 0.00283 0.01301 20.74450 26.64649 0.69895 -4.87702 -1.04399 3.60801 40.90540 11.75460 -3.91034 -2.66501 -0.00002 -0.00002 0.00000 0.00000 -5.00000 -2.54298 0.00002 0.00001 0.00000 -0.00000 -60.00000 -9.23201 -0.30100 2.14400 -2.00000 -0.00000 -0.00000 -4.22502 0.00001 0.00001 -2.00000 -0.00000 -0.00000 -2.65399 0.00001 -0.00001 -2.00000 0.00000 0.00000 -8.92000 0.00000 0.00000 80.00000 -0.00001 0.00001 -4.86299 0.00001 0.00001 90.00000 -0.00000 0.00001 -2.76499 0.00000 0.00001 70.00000 -0.00001 0.00001 -8.68900 -0.12600 -2.08700 80.00000 -0.00001 0.00001 -4.53799 0.00000 0.00000 90.00000 -0.00000 0.00001 -2.30502 0.00001 -0.00001 70.00000 -0.00001 0.00001 -8.39100 -0.81700 -3.75799 -2.00000 -0.00000 -0.00000 -3.04401 0.00001 0.00000 -2.00000 -0.00000 -0.00000 -1.97500 0.00000 -0.00001 -2.00000 0.00000 0.00000 -0.00002 0.77450 0.00007 0.00002 -0.00003 -0.00002 0.00281 6.89575 0.01234 5.31609 12.43803 -1.56851 
11.03345 75.43541 -227.06662 -1.29568 -2.72662 -4.98397 7.84693 0.52354 3.58348 10.43961 -3.02916 10.34858 -0.00048 -35.81551 -0.00361 -1.10973 10.71881 -3.98653 -0.00080 -33.69240 0.00743 0.23510 24.26810 -0.58148 -7.59243 0.13487 3.59039 -5.46587 1.59454 -15.81155 -0.00017 -34.92787 -0.00542 0.05000 12.56211 -2.23585 0.00027 -34.50495 0.00848 0.18392 17.43702 -0.63025 -0.00206 32.03230 -0.01136 0.04589 1.96852 0.15732 0.00135 23.44978 0.00410 -0.04051 2.32561 0.12033 1.66241 -0.49175 0.16307 -16.38404 1.52791 -5.17933 15.68736 -0.00091 0.00499 -63.95278 4.61747 -10.53708 23.88652 0.00333 -0.00869 -11.63867 10.47291 -13.35045 22.12690 0.00484 -0.00047 -13.59174 19.45072 1.31788 4.87698 -1.04399 3.60802 -41.57595 -8.45725 -7.72882 2.66498 0.00004 0.00002 0.00000 0.00000 5.00000 2.54301 -0.00002 -0.00002 -0.00002 0.00000 60.00001 9.23199 -0.30100 2.14401 -80.00000 -0.00001 0.00000 4.22498 0.00000 0.00001 -90.00000 0.00000 0.00000 2.65400 0.00001 0.00000 -69.99999 0.00000 0.00001 8.92000 0.00004 0.00004 -80.00000 -0.00001 0.00000 4.86301 -0.00001 0.00000 -90.00000 0.00000 0.00000 2.76501 0.00000 0.00000 -69.99999 0.00000 0.00001 8.68899 -0.12598 -2.08697 -80.00000 -0.00001 0.00000 4.53801 0.00000 -0.00001 -90.00000 0.00000 0.00000 2.30500 -0.00002 0.00002 -69.99999 0.00000 0.00001 8.39099 -0.81700 -3.75799 -80.00000 -0.00001 0.00000 3.04402 0.00000 -0.00001 -90.00000 0.00000 0.00000 1.97502 -0.00001 0.00001 -69.99999 0.00000 0.00001 -1.75371 -0.51384 0.16022 16.15422 1.43424 4.94071 -16.45083 0.00007 0.00439 68.83511 3.26196 9.64597 -24.90379 0.00569 0.01065 1.89276 8.49232 12.24154 -22.26229 0.00283 0.01301 20.76578 26.61529 0.56947 -4.87702 -1.04399 3.60801 40.90540 11.75460 -3.91034 -2.66501 -0.00002 -0.00002 0.00000 0.00000 -5.00000 -2.54298 0.00002 0.00001 0.00000 -0.00000 -60.00000 -9.23201 -0.30100 2.14400 -2.00000 -0.00000 -0.00000 -4.22502 0.00001 0.00001 -2.00000 -0.00000 -0.00000 -2.65399 0.00001 -0.00001 -2.00000 0.00000 0.00000 -8.92000 0.00000 0.00000 80.00000 -0.00001 0.00001 -4.86299 0.00001 0.00001 90.00000 -0.00000 0.00001 -2.76499 0.00000 0.00001 70.00000 -0.00001 0.00001 -8.68900 -0.12600 -2.08700 80.00000 -0.00001 0.00001 -4.53799 0.00000 0.00000 90.00000 -0.00000 0.00001 -2.30502 0.00001 -0.00001 70.00000 -0.00001 0.00001 -8.39100 -0.81700 -3.75799 -2.00000 -0.00000 -0.00000 -3.04401 0.00001 0.00000 -2.00000 -0.00000 -0.00000 -1.97500 0.00000 -0.00001 -2.00000 0.00000 0.00000 -0.00002 0.77450 0.00007 0.00002 -0.00003 -0.00002 0.00281 6.89575 0.01234 5.40913 12.14292 -1.52929 
11.06836 75.43541 -226.95583 -1.27440 -2.67148 -4.91626 7.83577 0.53999 3.58348 10.38875 -3.17917 10.27717 -0.00048 -35.74122 -0.00361 -1.03895 11.00508 -3.93929 -0.00080 -33.77216 0.00743 0.18021 24.03901 -0.45195 -7.59243 0.12467 3.59039 -5.57327 1.59243 -15.96427 -0.00017 -34.92456 -0.00542 0.12183 12.56336 -2.18182 0.00027 -34.50251 0.00848 0.22842 17.63494 -0.77024 -0.00206 32.03584 -0.01136 0.03394 1.96014 0.15878 0.00135 23.45102 0.00410 -0.04422 2.33091 0.11794 1.66241 -0.49470 0.15623 -16.50865 1.46038 -4.91304 15.66848 -0.00091 0.00499 -63.52023 4.95663 -10.12359 23.88073 0.00333 -0.00869 -11.69136 10.63404 -14.36042 22.09672 0.00484 -0.00047 -13.89630 19.37314 1.38056 4.87698 -1.04399 3.60802 -41.57595 -8.45725 -7.72882 2.66498 0.00004 0.00002 0.00000 0.00000 5.00000 2.54301 -0.00002 -0.00002 -0.00002 0.00000 60.00001 9.23199 -0.30100 2.14401 -80.00000 -0.00001 0.00000 4.22498 0.00000 0.00001 -90.00000 0.00000 0.00000 2.65400 0.00001 0.00000 -69.99999 0.00000 0.00001 8.92000 0.00004 0.00004 -80.00000 -0.00001 0.00000 4.86301 -0.00001 0.00000 -90.00000 0.00000 0.00000 2.76501 0.00000 0.00000 -69.99999 0.00000 0.00001 8.68899 -0.12598 -2.08697 -80.00000 -0.00001 0.00000 4.53801 0.00000 -0.00001 -90.00000 0.00000 0.00000 2.30500 -0.00002 0.00002 -69.99999 0.00000 0.00001 8.39099 -0.81700 -3.75799 -80.00000 -0.00001 0.00000 3.04402 0.00000 -0.00001 -90.00000 0.00000 0.00000 1.97502 -0.00001 0.00001 -69.99999 0.00000 0.00001 -1.75371 -0.51384 0.15247 16.20173 1.36390 4.68427 -16.45907 0.00007 0.00439 68.78157 3.27037 9.59474 -24.89043 0.00569 0.01065 1.93142 8.51460 12.41663 -22.27507 0.00283 0.01301 21.02073 26.68727 0.09148 -4.87702 -1.04399 3.60801 40.90540 11.75460 -3.91034 -2.66501 -0.00002 -0.00002 0.00000 0.00000 -5.00000 -2.54298 0.00002 0.00001 0.00000 -0.00000 -60.00000 -9.23201 -0.30100 2.14400 -2.00000 -0.00000 -0.00000 -4.22502 0.00001 0.00001 -2.00000 -0.00000 -0.00000 -2.65399 0.00001 -0.00001 -2.00000 0.00000 0.00000 -8.92000 0.00000 0.00000 80.00000 -0.00001 0.00001 -4.86299 0.00001 0.00001 90.00000 -0.00000 0.00001 -2.76499 0.00000 0.00001 70.00000 -0.00001 0.00001 -8.68900 -0.12600 -2.08700 80.00000 -0.00001 0.00001 -4.53799 0.00000 0.00000 90.00000 -0.00000 0.00001 -2.30502 0.00001 -0.00001 70.00000 -0.00001 0.00001 -8.39100 -0.81700 -3.75799 -2.00000 -0.00000 -0.00000 -3.04401 0.00001 0.00000 -2.00000 -0.00000 -0.00000 -1.97500 0.00000 -0.00001 -2.00000 0.00000 0.00000 -0.00002 0.77450 0.00007 0.00002 -0.00003 -0.00002 0.00281 6.89575 0.01234 5.56901 11.69483 -1.76762 
